<?xml version="1.0" encoding="UTF-8" standalone="no"?>
<!-- Created with Inkscape (http://www.inkscape.org/) -->

<svg
   width="42.333332mm"
   height="42.333336mm"
   viewBox="0 0 42.333332 42.333335"
   version="1.1"
   id="svg1"
   xml:space="preserve"
   sodipodi:docname="logo.svg"
   inkscape:version="1.4.2 (f4327f4, 2025-05-13)"
   xmlns:inkscape="http://www.inkscape.org/namespaces/inkscape"
   xmlns:sodipodi="http://sodipodi.sourceforge.net/DTD/sodipodi-0.dtd"
   xmlns:xlink="http://www.w3.org/1999/xlink"
   xmlns="http://www.w3.org/2000/svg"
   xmlns:svg="http://www.w3.org/2000/svg"><sodipodi:namedview
     id="namedview1"
     pagecolor="#ffffff"
     bordercolor="#000000"
     borderopacity="0.25"
     inkscape:showpageshadow="2"
     inkscape:pageopacity="0.0"
     inkscape:pagecheckerboard="0"
     inkscape:deskcolor="#d1d1d1"
     inkscape:document-units="mm"
     inkscape:zoom="1.7832348"
     inkscape:cx="-61.405262"
     inkscape:cy="135.98882"
     inkscape:window-width="1920"
     inkscape:window-height="1009"
     inkscape:window-x="-8"
     inkscape:window-y="-8"
     inkscape:window-maximized="1"
     inkscape:current-layer="svg1" /><defs
     id="defs1"><linearGradient
       id="linearGradient2"><stop
         style="stop-color:#fdd800;stop-opacity:1;"
         offset="0"
         id="stop3" /><stop
         style="stop-color:#fdd800;stop-opacity:1;"
         offset="1"
         id="stop4" /></linearGradient><mask
       maskUnits="userSpaceOnUse"
       id="mask666"><path
         id="path667"
         style="fill:#ffffff;fill-opacity:1;stroke:none;stroke-width:0.264583"
         d="m 333.63022,148.30369 a 9.9540396,22.282736 45 0 1 3.88762,1.49396 9.9540396,22.282736 45 0 1 -8.71782,22.79499 9.9540396,22.282736 45 0 1 -22.79448,8.71782 9.9540396,22.282736 45 0 1 7.02542,-20.99924 8.3309497,18.628183 45 0 0 -5.58933,17.26716 8.3309497,18.628183 45 0 0 19.06344,-7.28121 8.3309497,18.628183 45 0 0 7.28121,-19.06292 8.3309497,18.628183 45 0 0 -17.26768,5.58933 9.9540396,22.282736 45 0 1 17.11162,-8.51989 z" /></mask><linearGradient
       xlink:href="#linearGradient2"
       id="linearGradient672"
       gradientUnits="userSpaceOnUse"
       gradientTransform="matrix(-1,0,0,1,136.48823,-12.25337)"
       x1="115.11678"
       y1="32.649635"
       x2="86.973587"
       y2="32.189781" /></defs><path
     id="path668"
     style="fill:url(#linearGradient672);fill-opacity:1;stroke:#000000;stroke-width:0.55467"
     d="m 33.63461,3.91401 a 9.9540396,22.282736 45 0 1 3.88762,1.49396 9.9540396,22.282736 45 0 1 -8.71782,22.79499 9.9540396,22.282736 45 0 1 -22.79447,8.71782 9.9540396,22.282736 45 0 1 7.01404,-20.98632 9.9540396,22.282736 45 0 1 0.008,-0.009 8.3309498,18.628183 45 0 1 1.6955,-1.79937 8.3309498,18.628183 45 0 1 1.79576,-1.69189 8.3309498,18.628183 45 0 1 0.004,-0.004 9.9540396,22.282736 45 0 1 17.10749,-8.51627 z m -3.09594,1.67896 a 8.3309498,18.628183 45 0 0 -0.004,0 8.3309498,18.628183 45 0 1 1.24747,0.17105 8.3309498,18.628183 45 0 0 -1.24385,-0.17105 z m -0.6413,0.031 a 8.3309498,18.628183 45 0 0 -0.81132,0.0393 8.3309498,18.628183 45 0 1 0.81132,-0.0393 z m 1.91926,0.1447 a 8.3309498,18.628183 45 0 1 1.09192,0.41961 8.3309498,18.628183 45 0 1 0.8816,0.65629 8.3309498,18.628183 45 0 1 0.0207,0.0269 8.3309498,18.628183 45 0 0 -0.0202,-0.0269 8.3309498,18.628183 45 0 0 -5.2e-4,0 8.3309498,18.628183 45 0 0 -0.8816,-0.65629 8.3309498,18.628183 45 0 0 -1.09192,-0.41961 z m 2.4939,1.77457 A 8.3309498,18.628183 45 0 1 34.65677,8.27342 8.3309498,18.628183 45 0 0 17.0227,16.42125 8.3309498,18.628183 45 0 0 8.87488,34.05531 8.3309498,18.628183 45 0 1 8.14521,33.70908 8.3309498,18.628183 45 0 0 8.87488,34.05531 8.3309498,18.628183 45 0 0 26.50946,25.90749 8.3309498,18.628183 45 0 0 34.65677,8.27342 8.3309498,18.628183 45 0 0 34.31053,7.54324 Z" /><path
     id="path669"
     style="fill:#d2b5ff;fill-opacity:1;stroke:none;stroke-width:0.17221"
     d="M 33.63442,3.91392 A 9.9540396,22.282736 45 0 1 37.52204,5.40788 9.9540396,22.282736 45 0 1 28.80422,28.20287 9.9540396,22.282736 45 0 1 6.00974,36.92069 9.9540396,22.282736 45 0 1 13.03516,15.92145 8.3309498,18.628183 45 0 0 7.44583,33.18861 8.3309498,18.628183 45 0 0 26.50927,25.9074 8.3309498,18.628183 45 0 0 33.79048,6.84448 8.3309498,18.628183 45 0 0 16.5228,12.43381 9.9540396,22.282736 45 0 1 33.63442,3.91392 Z" /><path
     id="path670"
     style="fill:#311f4d;fill-opacity:1;stroke:none;stroke-width:0.221314"
     d="M 30.5333,5.59289 A 8.3309498,18.628183 45 0 1 33.78996,6.84448 8.3309498,18.628183 45 0 1 34.65657,8.27334 8.3309498,18.628183 45 0 0 17.0225,16.42116 8.3309498,18.628183 45 0 0 8.87468,34.05523 8.3309498,18.628183 45 0 1 7.44583,33.18861 8.3309498,18.628183 45 0 1 14.72703,14.1257 8.3309498,18.628183 45 0 1 30.5333,5.59289 Z" /><path
     style="fill:#e1cfed;fill-opacity:1;stroke:none;stroke-width:1.28255;paint-order:stroke fill markers"
     id="path671"
     mask="url(#mask666)"
     d="m 380.4713,187.31146 a 33.363422,37.538078 0 0 1 -25.59058,36.50514 33.363422,37.538078 0 0 1 -37.51451,-19.49558 33.363422,37.538078 0 0 1 8.11071,-45.58909 33.363422,37.538078 0 0 1 41.29369,-1.74665 l -19.66273,30.32618 z"
     transform="translate(-299.9958,-144.38976)" /><path
     style="font-weight:bold;font-size:12.2276px;line-height:13;font-family:'Jockey One';-inkscape-font-specification:'Jockey One Bold';letter-spacing:0.888274px;fill:#3d344f;stroke:#000000;stroke-width:1.28256;paint-order:stroke fill markers"
     d="m 3.0339155,16.085223 h 2.934624 v 1.467312 H 3.6208403 l -0.036683,0.07337 1.956416,3.570459 q 0.5991524,1.076029 0.5991524,1.638499 0,1.234987 -0.8192492,1.809685 h -3.240314 v -1.418402 h 2.5311132 l 0.036683,-0.07337 -2.200968,-3.949514 q -0.4768764,-0.855932 -0.4768764,-1.393947 0,-1.27167 1.0638012,-1.724091 z m 6.5252037,8.55932 H 7.883938 v -8.55932 h 1.6751812 v 3.448183 h 1.9564158 v -3.448183 h 1.675181 v 8.55932 H 11.515535 V 21.098539 H 9.5591192 Z m 5.6937288,0 v -8.55932 h 1.675181 v 8.55932 z m 5.119022,-7.092008 h -1.846368 v -1.467312 h 5.355689 v 1.467312 h -1.846368 v 7.092008 H 20.37187 Z m 6.488516,0 h -1.846368 v -1.467312 h 5.355689 v 1.467312 h -1.846368 v 7.092008 h -1.662953 z m 4.091916,4.267432 v -1.393946 h 2.518885 v 1.393946 z m 5.950506,-4.267432 v 3.0569 h 1.088256 q 0.672518,-0.550242 0.672518,-1.614044 0,-0.452421 -0.183414,-0.855932 -0.171186,-0.40351 -0.415738,-0.586924 z m -1.650726,7.092008 v -8.55932 h 3.313679 q 0.831477,0.366828 1.308353,1.124939 0.489104,0.758111 0.489104,1.773002 0,1.002663 -0.501331,1.858595 -0.501332,0.855932 -1.47954,1.210532 h -1.479539 v 2.592252 z"
     id="text671"
     aria-label="SHITT-P" /><path
     style="font-weight:bold;font-size:12.2276px;line-height:13;font-family:'Jockey One';-inkscape-font-specification:'Jockey One Bold';letter-spacing:0.888274px;fill:#766598;stroke:#ffffff;stroke-width:0.767547;paint-order:stroke fill markers"
     d="m 3.0339155,16.085223 h 2.934624 v 1.467312 H 3.6208403 l -0.036683,0.07337 1.956416,3.570459 q 0.5991524,1.076029 0.5991524,1.638499 0,1.234987 -0.8192492,1.809685 h -3.240314 v -1.418402 h 2.5311132 l 0.036683,-0.07337 -2.200968,-3.949514 q -0.4768764,-0.855932 -0.4768764,-1.393947 0,-1.27167 1.0638012,-1.724091 z m 6.5252037,8.55932 H 7.883938 v -8.55932 h 1.6751812 v 3.448183 h 1.9564158 v -3.448183 h 1.675181 v 8.55932 H 11.515535 V 21.098539 H 9.5591192 Z m 5.6937288,0 v -8.55932 h 1.675181 v 8.55932 z m 5.119022,-7.092008 h -1.846368 v -1.467312 h 5.355689 v 1.467312 h -1.846368 v 7.092008 H 20.37187 Z m 6.488516,0 h -1.846368 v -1.467312 h 5.355689 v 1.467312 h -1.846368 v 7.092008 h -1.662953 z m 4.091916,4.267432 v -1.393946 h 2.518885 v 1.393946 z m 5.950506,-4.267432 v 3.0569 h 1.088256 q 0.672518,-0.550242 0.672518,-1.614044 0,-0.452421 -0.183414,-0.855932 -0.171186,-0.40351 -0.415738,-0.586924 z m -1.650726,7.092008 v -8.55932 h 3.313679 q 0.831477,0.366828 1.308353,1.124939 0.489104,0.758111 0.489104,1.773002 0,1.002663 -0.501331,1.858595 -0.501332,0.855932 -1.47954,1.210532 h -1.479539 v 2.592252 z"
     id="text672"
     aria-label="SHITT-P" /></svg>
