<?xml version="1.0" encoding="UTF-8" standalone="no"?>
<!-- Created with Inkscape (http://www.inkscape.org/) -->

<svg
   width="42.333332mm"
   height="42.333336mm"
   viewBox="0 0 42.333332 42.333335"
   version="1.1"
   id="svg1"
   xml:space="preserve"
   xmlns:xlink="http://www.w3.org/1999/xlink"
   xmlns="http://www.w3.org/2000/svg"
   xmlns:svg="http://www.w3.org/2000/svg"><defs
     id="defs1"><linearGradient
       id="linearGradient2"><stop
         style="stop-color:#fdd800;stop-opacity:1;"
         offset="0"
         id="stop3" /><stop
         style="stop-color:#fdd800;stop-opacity:1;"
         offset="1"
         id="stop4" /></linearGradient><mask
       maskUnits="userSpaceOnUse"
       id="mask666"><path
         id="path667"
         style="fill:#ffffff;fill-opacity:1;stroke:none;stroke-width:0.264583"
         d="m 333.63022,148.30369 a 9.9540396,22.282736 45 0 1 3.88762,1.49396 9.9540396,22.282736 45 0 1 -8.71782,22.79499 9.9540396,22.282736 45 0 1 -22.79448,8.71782 9.9540396,22.282736 45 0 1 7.02542,-20.99924 8.3309497,18.628183 45 0 0 -5.58933,17.26716 8.3309497,18.628183 45 0 0 19.06344,-7.28121 8.3309497,18.628183 45 0 0 7.28121,-19.06292 8.3309497,18.628183 45 0 0 -17.26768,5.58933 9.9540396,22.282736 45 0 1 17.11162,-8.51989 z" /></mask><linearGradient
       xlink:href="#linearGradient2"
       id="linearGradient672"
       gradientUnits="userSpaceOnUse"
       gradientTransform="matrix(-1,0,0,1,437.80696,199.60514)"
       x1="115.11678"
       y1="32.649635"
       x2="86.973587"
       y2="32.189781" /></defs><g
     id="layer1"
     transform="translate(-301.31873,-211.85851)"><path
       id="path668"
       style="fill:url(#linearGradient672);fill-opacity:1;stroke:#000000;stroke-width:0.55467"
       d="m 334.95334,215.77252 a 9.9540396,22.282736 45 0 1 3.88762,1.49396 9.9540396,22.282736 45 0 1 -8.71782,22.79499 9.9540396,22.282736 45 0 1 -22.79447,8.71782 9.9540396,22.282736 45 0 1 7.01404,-20.98632 9.9540396,22.282736 45 0 1 0.008,-0.009 8.3309498,18.628183 45 0 1 1.6955,-1.79937 8.3309498,18.628183 45 0 1 1.79576,-1.69189 8.3309498,18.628183 45 0 1 0.004,-0.004 9.9540396,22.282736 45 0 1 17.10749,-8.51627 z m -3.09594,1.67896 a 8.3309498,18.628183 45 0 0 -0.004,0 8.3309498,18.628183 45 0 1 1.24747,0.17105 8.3309498,18.628183 45 0 0 -1.24385,-0.17105 z m -0.6413,0.031 a 8.3309498,18.628183 45 0 0 -0.81132,0.0393 8.3309498,18.628183 45 0 1 0.81132,-0.0393 z m 1.91926,0.1447 a 8.3309498,18.628183 45 0 1 1.09192,0.41961 8.3309498,18.628183 45 0 1 0.8816,0.65629 8.3309498,18.628183 45 0 1 0.0207,0.0269 8.3309498,18.628183 45 0 0 -0.0202,-0.0269 8.3309498,18.628183 45 0 0 -5.2e-4,0 8.3309498,18.628183 45 0 0 -0.8816,-0.65629 8.3309498,18.628183 45 0 0 -1.09192,-0.41961 z m 2.4939,1.77457 a 8.3309498,18.628183 45 0 1 0.34624,0.73018 8.3309498,18.628183 45 0 0 -17.63407,8.14783 8.3309498,18.628183 45 0 0 -8.14782,17.63406 8.3309498,18.628183 45 0 1 -0.72967,-0.34623 8.3309498,18.628183 45 0 0 0.72967,0.34623 8.3309498,18.628183 45 0 0 17.63458,-8.14782 8.3309498,18.628183 45 0 0 8.14731,-17.63407 8.3309498,18.628183 45 0 0 -0.34624,-0.73018 z" /><path
       id="path669"
       style="fill:#d2b5ff;fill-opacity:1;stroke:none;stroke-width:0.17221"
       d="m 334.95315,215.77243 a 9.9540396,22.282736 45 0 1 3.88762,1.49396 9.9540396,22.282736 45 0 1 -8.71782,22.79499 9.9540396,22.282736 45 0 1 -22.79448,8.71782 9.9540396,22.282736 45 0 1 7.02542,-20.99924 8.3309498,18.628183 45 0 0 -5.58933,17.26716 8.3309498,18.628183 45 0 0 19.06344,-7.28121 8.3309498,18.628183 45 0 0 7.28121,-19.06292 8.3309498,18.628183 45 0 0 -17.26768,5.58933 9.9540396,22.282736 45 0 1 17.11162,-8.51989 z" /><path
       id="path670"
       style="fill:#311f4d;fill-opacity:1;stroke:none;stroke-width:0.221314"
       d="m 331.85203,217.4514 a 8.3309498,18.628183 45 0 1 3.25666,1.25159 8.3309498,18.628183 45 0 1 0.86661,1.42886 8.3309498,18.628183 45 0 0 -17.63407,8.14782 8.3309498,18.628183 45 0 0 -8.14782,17.63407 8.3309498,18.628183 45 0 1 -1.42885,-0.86662 8.3309498,18.628183 45 0 1 7.2812,-19.06291 8.3309498,18.628183 45 0 1 15.80627,-8.53281 z" /><path
       style="fill:#e1cfed;fill-opacity:1;stroke:none;stroke-width:1.28255;paint-order:stroke fill markers"
       id="path671"
       mask="url(#mask666)"
       d="m 380.4713,187.31146 a 33.363422,37.538078 0 0 1 -25.59058,36.50514 33.363422,37.538078 0 0 1 -37.51451,-19.49558 33.363422,37.538078 0 0 1 8.11071,-45.58909 33.363422,37.538078 0 0 1 41.29369,-1.74665 l -19.66273,30.32618 z"
       transform="translate(1.3229254,67.468746)" /><text
       xml:space="preserve"
       style="font-weight:bold;font-size:12.2276px;line-height:13;font-family:'IBM Plex Sans JP';-inkscape-font-specification:'IBM Plex Sans JP Bold';text-align:start;letter-spacing:0.888274px;writing-mode:lr-tb;direction:ltr;text-anchor:start;fill:#3d344f;fill-opacity:1;stroke:#000000;stroke-width:1.28256;stroke-dasharray:none;stroke-opacity:1;paint-order:stroke fill markers"
       x="302.98315"
       y="236.50305"
       id="text671"><tspan
         id="tspan671"
         style="font-style:normal;font-variant:normal;font-weight:bold;font-stretch:normal;font-family:'Jockey One';-inkscape-font-specification:'Jockey One Bold';letter-spacing:0.888274px;fill:#3d344f;fill-opacity:1;stroke:#000000;stroke-width:1.28256"
         x="302.98315"
         y="236.50305">SHITT-P</tspan></text><text
       xml:space="preserve"
       style="font-weight:bold;font-size:12.2276px;line-height:13;font-family:'IBM Plex Sans JP';-inkscape-font-specification:'IBM Plex Sans JP Bold';text-align:start;letter-spacing:0.888274px;writing-mode:lr-tb;direction:ltr;text-anchor:start;fill:#766598;fill-opacity:1;stroke:#ffffff;stroke-width:0.767547;stroke-dasharray:none;stroke-opacity:1;paint-order:stroke fill markers"
       x="302.98315"
       y="236.50305"
       id="text672"><tspan
         id="tspan672"
         style="font-style:normal;font-variant:normal;font-weight:bold;font-stretch:normal;font-family:'Jockey One';-inkscape-font-specification:'Jockey One Bold';letter-spacing:0.888274px;fill:#766598;fill-opacity:1;stroke:#ffffff;stroke-width:0.767547"
         x="302.98315"
         y="236.50305">SHITT-P</tspan></text></g></svg>
